<svg width="22" height="23" viewBox="0 0 22 23" fill="none" xmlns="http://www.w3.org/2000/svg">
<path d="M9.90039 2.1499C14.4566 2.1499 18.1504 5.8437 18.1504 10.3999C18.1504 14.9561 14.4566 18.6499 9.90039 18.6499C5.34419 18.6499 1.65039 14.9561 1.65039 10.3999C1.65039 5.8437 5.34419 2.1499 9.90039 2.1499ZM9.90039 3.7999C6.25554 3.7999 3.30039 6.75505 3.30039 10.3999C3.30039 14.0448 6.25554 16.9999 9.90039 16.9999C13.5452 16.9999 16.5004 14.0448 16.5004 10.3999C16.5004 6.75505 13.5452 3.7999 9.90039 3.7999Z" fill="#202020"/>
<path d="M14.8176 15.3773C14.9619 15.233 15.1547 15.1473 15.3586 15.1368C15.5625 15.1264 15.763 15.1919 15.9214 15.3207L15.9841 15.3773L21.1728 20.5666C21.3218 20.7162 21.4077 20.9173 21.4129 21.1284C21.418 21.3395 21.3421 21.5446 21.2006 21.7013C21.0591 21.8581 20.8629 21.9546 20.6524 21.9711C20.4419 21.9876 20.2331 21.9227 20.069 21.7898L20.0063 21.7331L14.817 16.5444C14.7404 16.4678 14.6795 16.3769 14.638 16.2767C14.5966 16.1766 14.5752 16.0693 14.5752 15.9609C14.5752 15.8525 14.5966 15.7452 14.638 15.6451C14.6795 15.5449 14.7409 15.454 14.8176 15.3773Z" fill="#202020"/>
</svg>
