<svg width="180" height="180" viewBox="0 0 180 180" fill="none" xmlns="http://www.w3.org/2000/svg">
<path d="M157.5 90V142.5C157.5 146.478 155.92 150.294 153.107 153.107C150.294 155.92 146.478 157.5 142.5 157.5H37.5C33.5218 157.5 29.7064 155.92 26.8934 153.107C24.0804 150.294 22.5 146.478 22.5 142.5V37.5C22.5 33.5218 24.0804 29.7064 26.8934 26.8934C29.7064 24.0804 33.5218 22.5 37.5 22.5H90" stroke="#212121" stroke-width="2" stroke-linecap="round" stroke-linejoin="round"/>
<path d="M120 37.5H165" stroke="#212121" stroke-width="2" stroke-linecap="round" stroke-linejoin="round"/>
<path d="M142.5 15V60" stroke="#212121" stroke-width="2" stroke-linecap="round" stroke-linejoin="round"/>
<path d="M67.5 82.5C75.7843 82.5 82.5 75.7843 82.5 67.5C82.5 59.2157 75.7843 52.5 67.5 52.5C59.2157 52.5 52.5 59.2157 52.5 67.5C52.5 75.7843 59.2157 82.5 67.5 82.5Z" stroke="#212121" stroke-width="2" stroke-linecap="round" stroke-linejoin="round"/>
<path d="M157.5 112.5L134.355 89.355C131.542 86.543 127.727 84.9633 123.75 84.9633C119.773 84.9633 115.958 86.543 113.145 89.355L45 157.5" stroke="#212121" stroke-width="2" stroke-linecap="round" stroke-linejoin="round"/>
</svg>
